<?xml version="1.0" standalone="no"?>
<!DOCTYPE svg PUBLIC "-//W3C//DTD SVG 20010904//EN"
 "http://www.w3.org/TR/2001/REC-SVG-20010904/DTD/svg10.dtd">
<svg version="1.0" xmlns="http://www.w3.org/2000/svg"
 width="512.000000pt" height="512.000000pt" viewBox="0 0 512.000000 512.000000"
 preserveAspectRatio="xMidYMid meet">
<metadata>
Created by potrace 1.11, written by Peter Selinger 2001-2013
</metadata>
<g transform="translate(0.000000,512.000000) scale(0.100000,-0.100000)"
fill="#000000" stroke="none">
<path d="M0 2560 l0 -2560 2560 0 2560 0 0 2560 0 2560 -2560 0 -2560 0 0
-2560z m2518 2109 c493 -53 945 -341 1193 -760 l52 -88 146 0 c170 -1 281 -18
407 -62 414 -144 702 -493 764 -924 5 -38 10 -271 10 -517 l0 -448 -704 0
-704 0 -5 -22 c-3 -13 -7 -66 -8 -118 -1 -52 -4 -98 -6 -103 -4 -7 -15 -179
-15 -219 1 -10 -7 -18 -16 -19 -14 0 -13 -2 3 -9 11 -5 14 -9 7 -9 -8 -1 -10
-6 -5 -13 11 -18 13 -37 4 -43 -5 -2 -6 -23 -4 -45 2 -24 0 -40 -7 -40 -5 0
-10 11 -10 25 0 17 -4 23 -14 19 -8 -3 -17 -1 -20 5 -4 6 -13 8 -21 4 -8 -3
-15 0 -15 7 0 6 5 8 10 5 6 -3 10 1 10 9 0 9 -6 13 -14 10 -8 -3 -16 2 -19 13
-4 12 -5 9 -4 -7 1 -14 -2 -31 -6 -38 -5 -7 -2 -15 8 -18 11 -5 13 -10 5 -19
-7 -8 -5 -12 5 -12 8 0 12 4 9 8 -9 16 30 28 44 13 7 -8 10 -14 5 -14 -4 0 2
-7 13 -15 10 -8 15 -15 10 -15 -5 0 -3 -6 3 -14 8 -10 9 -16 1 -21 -6 -4 -9
-3 -8 2 2 4 0 9 -4 11 -5 1 -8 0 -8 -3 0 -3 0 -9 0 -15 0 -5 7 -10 17 -10 21
0 12 -9 -15 -15 -23 -4 -60 29 -43 40 6 3 11 1 11 -4 0 -6 5 -11 10 -11 7 0 7
6 2 17 -5 10 -7 23 -5 30 2 6 -1 14 -6 18 -7 4 -8 0 -4 -11 5 -13 3 -15 -7 -9
-10 6 -12 4 -7 -8 7 -19 -8 -32 -24 -21 -8 4 -7 9 2 15 7 4 10 11 6 16 -13 12
-27 -20 -15 -34 7 -9 7 -13 -1 -13 -6 0 -16 10 -21 23 -5 12 -9 16 -9 10 -1
-7 -6 -13 -12 -13 -5 0 -7 5 -3 12 5 7 3 8 -6 3 -8 -5 -11 -3 -8 6 3 8 15 13
26 11 14 -2 22 2 22 11 0 27 -14 27 -41 1 l-28 -27 -7 27 c-4 18 -13 26 -28
26 -16 0 -18 2 -6 9 8 6 18 7 22 5 4 -3 5 2 2 10 -3 8 -12 17 -21 20 -11 4
-13 2 -9 -9 3 -8 1 -15 -3 -15 -5 0 -11 5 -13 10 -2 6 -3 -10 -4 -35 0 -24 3
-40 7 -33 4 7 5 16 3 20 -3 4 2 8 10 8 8 0 18 -5 22 -12 4 -7 3 -8 -4 -4 -7 4
-12 3 -12 -3 0 -5 -7 -16 -15 -24 -12 -13 -10 -17 18 -30 33 -16 63 -7 51 17
-3 6 0 4 8 -5 7 -9 19 -14 25 -12 7 3 16 -2 19 -11 5 -12 10 -13 25 -5 15 8
19 6 19 -7 0 -10 -5 -14 -15 -10 -25 9 -17 -10 10 -24 14 -7 23 -15 20 -18 -2
-3 -11 0 -19 7 -8 6 -20 10 -27 9 -7 -2 -14 3 -15 10 -1 6 -2 17 -3 22 -1 14
-31 13 -31 -1 0 -6 -7 -8 -16 -5 -8 3 -24 1 -35 -4 -15 -8 -19 -7 -19 4 0 9
-6 13 -14 10 -9 -3 -16 2 -18 13 -2 10 -8 -27 -12 -82 -8 -112 -10 -126 -31
-350 -8 -88 -15 -163 -15 -167 0 -5 -290 -8 -645 -8 l-645 0 -1 35 c-1 19 -2
44 -3 55 0 11 -11 27 -23 35 -23 16 -32 8 -13 -11 6 -6 6 -15 0 -24 -8 -13
-10 -12 -10 3 0 10 -3 16 -8 14 -4 -3 -23 8 -42 24 -19 16 -29 29 -22 29 7 0
12 5 12 11 0 5 -4 7 -10 4 -21 -13 -50 -14 -50 -1 0 7 -6 20 -13 30 -12 17
-14 17 -28 -1 -13 -16 -13 -17 4 -4 20 15 23 2 5 -19 -11 -12 -10 -12 5 -1 12
9 17 10 17 2 0 -6 -7 -14 -15 -17 -8 -4 -15 -10 -15 -16 0 -5 6 -6 13 -3 6 4
5 1 -4 -7 -9 -7 -14 -19 -11 -27 2 -8 0 -11 -5 -8 -5 3 -15 2 -23 -4 -10 -6
-11 -9 -2 -9 6 0 12 -4 12 -8 0 -17 -26 -8 -27 10 -1 10 2 18 6 18 12 0 21 39
10 46 -5 3 -9 -2 -9 -10 0 -10 -6 -13 -15 -10 -8 4 -15 10 -15 16 0 5 5 6 10
3 6 -3 10 -1 10 4 0 6 -5 11 -11 11 -15 0 -7 53 10 66 11 9 12 12 1 19 -9 6
-11 4 -5 -6 8 -12 6 -12 -8 0 -18 15 -23 26 -7 16 6 -3 10 -1 10 4 0 6 -6 11
-12 11 -9 0 -8 4 2 10 8 5 10 10 3 10 -7 0 -11 26 -10 80 1 44 -1 80 -5 80 -3
0 -6 19 -6 42 0 24 -3 68 -6 98 -3 30 -12 183 -21 340 -8 157 -18 304 -21 327
l-5 42 -522 4 c-579 4 -570 3 -712 74 -146 73 -246 172 -320 313 -242 470 56
1014 585 1066 61 6 71 9 74 28 48 262 147 493 294 691 80 107 267 287 373 357
320 214 694 308 1067 267z m992 -3429 c0 -5 -5 -10 -11 -10 -5 0 -7 5 -4 10 3
6 8 10 11 10 2 0 4 -4 4 -10z m-56 -61 c-2 -4 -13 -5 -24 -2 -11 3 -17 9 -14
14 3 5 10 6 16 3 7 -4 8 -2 4 5 -4 6 -12 9 -17 6 -5 -4 -9 -2 -9 4 0 5 6 11
13 14 12 4 39 -32 31 -44z m-37 -81 c-3 -8 -6 -5 -6 6 -1 11 2 17 5 13 3 -3 4
-12 1 -19z m-1503 -407 c10 -9 22 -26 27 -39 5 -14 14 -20 21 -16 6 4 8 3 5
-3 -4 -6 2 -13 13 -16 12 -3 20 1 23 12 2 10 4 9 3 -4 -2 -21 -6 -22 -42 -11
-15 5 -21 2 -21 -10 0 -10 7 -14 19 -11 10 3 18 1 18 -4 0 -5 -11 -9 -25 -9
-22 0 -25 4 -25 34 0 40 -8 66 -21 66 -6 0 -5 -8 1 -19 7 -13 7 -22 0 -26 -5
-3 -10 -11 -10 -16 0 -6 4 -8 8 -5 4 2 8 -6 8 -19 0 -16 -5 -23 -18 -22 -23 2
-24 17 -1 17 22 0 8 13 -18 17 -11 2 -18 -1 -15 -6 11 -18 -24 -20 -45 -2 -19
16 -20 18 -6 24 11 4 17 1 17 -8 0 -7 4 -16 9 -19 11 -7 9 13 -2 32 -5 7 -13
10 -18 7 -5 -4 -9 -2 -9 3 0 6 7 13 16 16 8 3 12 10 9 16 -3 5 -1 10 4 10 6 0
11 6 11 14 0 19 40 17 64 -3z m106 -101 c0 -5 -5 -10 -11 -10 -5 0 -7 5 -4 10
3 6 8 10 11 10 2 0 4 -4 4 -10z"/>
<path d="M1003 3044 c-52 -19 -118 -89 -132 -140 -6 -22 -11 -127 -11 -235 0
-195 0 -197 28 -249 16 -31 44 -65 70 -84 l44 -31 1111 -3 1112 -3 20 -27 c15
-21 15 -24 2 -13 -14 11 -17 11 -17 -1 0 -8 6 -20 13 -27 10 -11 10 -13 0 -7
-10 5 -13 -7 -13 -47 l0 -54 40 3 c22 1 44 5 50 9 5 3 10 2 10 -2 0 -11 113
-8 131 2 8 6 10 4 4 -4 -5 -9 0 -12 16 -10 13 2 30 0 37 -4 9 -6 12 13 12 87
l0 96 279 0 279 0 53 28 c39 20 62 41 84 77 l30 48 3 215 c3 212 3 215 -22
266 -14 29 -39 62 -56 74 -65 48 -94 52 -392 52 l-279 0 3 -27 3 -28 290 -5
c325 -6 333 -7 374 -80 19 -35 21 -53 21 -240 0 -228 -6 -253 -69 -296 l-36
-24 -288 0 c-177 0 -286 4 -282 9 3 6 -3 9 -14 8 -14 -1 -17 -5 -11 -12 7 -8
5 -12 -5 -12 -14 0 -19 11 -16 31 1 5 -6 5 -16 2 -9 -4 -14 -4 -10 0 4 4 -1
16 -10 27 -11 12 -12 17 -4 12 10 -6 12 -4 7 4 -4 7 -13 10 -19 8 -7 -2 -20 0
-29 5 -14 6 -18 5 -18 -7 0 -9 4 -14 9 -11 11 7 45 -23 54 -47 4 -10 11 -15
17 -12 5 3 10 -1 10 -9 0 -9 5 -16 10 -16 6 0 10 -4 10 -8 0 -4 -11 -8 -25 -8
-14 0 -25 4 -25 10 0 5 -9 -1 -20 -14 -11 -13 -20 -19 -20 -14 0 5 -18 9 -40
10 -30 0 -39 -3 -35 -13 3 -8 0 -11 -6 -8 -6 4 -8 14 -5 22 4 11 2 13 -9 10
-8 -4 -17 -2 -21 4 -4 6 -11 6 -20 -2 -8 -6 -17 -9 -21 -5 -3 3 0 6 7 6 9 0 7
5 -6 15 -16 12 -168 14 -1119 15 l-1100 0 -36 24 c-63 43 -69 68 -69 296 0
187 2 205 21 240 12 21 38 47 59 59 l38 21 1071 0 c751 0 1071 3 1071 11 0 6
-5 19 -10 30 -10 19 -32 19 -1068 18 -906 0 -1063 -3 -1099 -15z m2514 -724
c1 -11 -2 -20 -8 -20 -10 0 -12 23 -2 33 9 9 9 10 10 -13z m-234 -40 c3 -11 1
-18 -4 -14 -5 3 -9 12 -9 20 0 20 7 17 13 -6z m186 -9 c-6 -2 -16 2 -22 9 -9
10 -9 11 1 6 7 -4 12 -2 12 6 0 9 3 9 10 -2 6 -10 6 -16 -1 -19z m-47 12 c-6
-2 -9 -10 -6 -15 4 -7 2 -8 -4 -4 -18 11 -14 26 6 25 10 0 12 -3 4 -6z m-78
-11 c2 -4 -5 -9 -17 -9 -17 -2 -19 0 -7 7 18 12 18 12 24 2z m164 -57 c-3 -3
-9 2 -12 12 -6 14 -5 15 5 6 7 -7 10 -15 7 -18z"/>
<path d="M1215 2826 c-94 -42 -124 -169 -58 -246 72 -86 188 -80 257 13 16 21
21 43 21 87 0 63 -16 95 -67 133 -33 25 -113 32 -153 13z"/>
<path d="M1855 2826 c-94 -42 -124 -169 -58 -246 72 -86 188 -80 257 13 16 21
21 43 21 87 0 63 -16 95 -67 133 -33 25 -113 32 -153 13z"/>
<path d="M2495 2826 c-94 -42 -124 -169 -58 -246 72 -86 188 -80 257 13 16 21
21 43 21 87 0 63 -16 95 -67 133 -33 25 -113 32 -153 13z"/>
<path d="M3135 2826 c-41 -18 -83 -69 -91 -111 -18 -100 55 -195 151 -195 l35
0 0 160 0 160 -32 0 c-18 -1 -47 -7 -63 -14z"/>
<path d="M3775 2826 c-94 -42 -124 -169 -58 -246 72 -86 188 -80 257 13 16 21
21 43 21 87 0 63 -16 95 -67 133 -33 25 -113 32 -153 13z"/>
<path d="M3350 2466 c0 -8 5 -18 10 -21 6 -3 10 1 10 9 0 8 -4 18 -10 21 -5 3
-10 -1 -10 -9z"/>
<path d="M3281 2453 c7 -8 18 -12 25 -9 7 3 16 1 19 -4 4 -6 1 -10 -6 -10 -18
0 -5 -10 20 -15 27 -5 26 -2 -1 27 -26 26 -77 36 -57 11z"/>
<path d="M3460 2460 c-19 -12 -13 -16 30 -24 29 -5 31 -4 12 4 -13 5 -20 14
-17 20 8 12 -5 13 -25 0z"/>
<path d="M3257 2429 c7 -7 15 -10 18 -7 3 3 -2 9 -12 12 -14 6 -15 5 -6 -5z"/>
<path d="M3460 2420 c0 -5 5 -10 11 -10 5 0 7 5 4 10 -3 6 -8 10 -11 10 -2 0
-4 -4 -4 -10z"/>
<path d="M3490 2408 c0 -22 26 -24 34 -3 3 8 1 15 -4 15 -6 0 -10 -6 -10 -12
0 -9 -4 -8 -10 2 -8 13 -10 12 -10 -2z"/>
<path d="M3240 2400 c-12 -8 -10 -9 7 -7 12 2 26 6 29 10 11 11 -19 8 -36 -3z"/>
<path d="M3286 2394 c-3 -9 -12 -14 -19 -11 -8 3 -20 1 -28 -5 -11 -8 -11 -9
3 -5 9 3 19 -1 22 -9 3 -8 13 -14 21 -14 10 0 13 -5 9 -11 -8 -14 57 21 68 36
7 10 12 1 9 -17 0 -5 8 -8 19 -8 14 0 18 -5 13 -17 -4 -12 0 -11 11 4 15 20
15 25 2 50 -8 16 -15 24 -16 20 0 -5 5 -17 10 -28 8 -15 7 -19 -4 -19 -9 0
-13 6 -11 13 3 6 0 19 -5 27 -8 13 -11 13 -19 1 -5 -8 -16 -11 -26 -8 -9 4
-14 3 -10 -3 7 -12 3 -12 -19 -4 -9 3 -13 10 -10 15 3 5 1 9 -4 9 -6 0 -13 -7
-16 -16z m34 -28 c0 -9 -8 -12 -27 -8 -25 5 -25 6 -8 13 29 11 35 10 35 -5z"/>
<path d="M3345 2340 c-3 -5 -3 -10 2 -11 4 0 16 -2 26 -4 21 -4 23 11 1 19
-21 8 -22 8 -29 -4z"/>
<path d="M3490 1680 c-9 -6 -10 -10 -3 -10 6 0 15 5 18 10 8 12 4 12 -15 0z"/>
<path d="M3563 1675 c0 -8 4 -12 9 -9 5 3 6 10 3 15 -9 13 -12 11 -12 -6z"/>
<path d="M2595 1656 c-153 -67 -182 -275 -54 -378 l39 -31 0 -94 c0 -87 2 -94
28 -124 21 -23 37 -31 64 -32 85 -2 118 44 118 167 l0 87 37 32 c120 106 88
310 -59 371 -45 19 -132 20 -173 2z"/>
<path d="M3580 1635 c0 -5 5 -17 10 -25 5 -8 10 -10 10 -5 0 6 -5 17 -10 25
-5 8 -10 11 -10 5z"/>
<path d="M3439 1571 c11 -7 11 -9 0 -13 -8 -3 -11 -8 -8 -12 3 -3 13 2 22 12
15 17 15 18 -6 19 -15 2 -18 0 -8 -6z"/>
<path d="M3606 1570 c-2 -3 0 -16 5 -30 6 -23 7 -23 8 -3 1 12 9 26 19 32 15
9 14 10 -6 8 -13 -1 -25 -4 -26 -7z"/>
<path d="M3480 1542 c0 -4 10 -13 23 -21 22 -14 22 -14 3 8 -20 22 -26 25 -26
13z"/>
<path d="M3527 1510 c-5 -20 9 -38 20 -26 4 3 2 6 -4 6 -6 0 -9 9 -6 20 3 11
3 20 0 20 -2 0 -7 -9 -10 -20z"/>
<path d="M3406 1507 c3 -10 9 -15 12 -12 3 3 0 11 -7 18 -10 9 -11 8 -5 -6z"/>
<path d="M3508 1468 c5 -5 16 -8 23 -6 8 3 3 7 -10 11 -17 4 -21 3 -13 -5z"/>
<path d="M3566 1467 c3 -10 9 -15 12 -12 3 3 0 11 -7 18 -10 9 -11 8 -5 -6z"/>
<path d="M3440 1460 c-8 -5 -17 -7 -21 -4 -4 2 -11 -1 -15 -7 -5 -9 1 -10 22
-5 31 8 40 13 33 20 -3 3 -11 1 -19 -4z"/>
<path d="M3484 1462 c4 -7 2 -21 -5 -30 -12 -15 -11 -15 6 0 16 15 17 20 6 30
-11 11 -13 10 -7 0z"/>
<path d="M3600 1430 c0 -5 5 -10 11 -10 5 0 7 5 4 10 -3 6 -8 10 -11 10 -2 0
-4 -4 -4 -10z"/>
<path d="M3538 1423 c7 -3 16 -2 19 1 4 3 -2 6 -13 5 -11 0 -14 -3 -6 -6z"/>
<path d="M3394 1408 c-5 -7 -2 -9 8 -5 9 3 21 0 27 -6 9 -9 11 -8 6 6 -8 19
-30 23 -41 5z"/>
<path d="M3537 1383 c-11 -13 -16 -27 -13 -30 3 -4 6 -3 6 2 0 4 6 2 14 -4 11
-9 16 -9 22 0 4 7 3 9 -4 5 -16 -10 -25 13 -11 30 6 8 10 16 8 18 -2 2 -12 -7
-22 -21z"/>
<path d="M3590 1400 c0 -5 5 -10 10 -10 6 0 10 5 10 10 0 6 -4 10 -10 10 -5 0
-10 -4 -10 -10z"/>
<path d="M3450 1391 c0 -5 -9 -13 -21 -16 -11 -4 -18 -9 -16 -12 3 -2 18 2 33
10 17 9 23 17 15 21 -6 4 -11 3 -11 -3z"/>
<path d="M3598 1371 c12 -7 18 -25 21 -54 1 -5 6 -5 12 -1 8 4 7 9 -2 15 -10
6 -11 9 -2 9 9 0 7 7 -4 20 -10 11 -22 20 -28 20 -5 0 -4 -4 3 -9z"/>
<path d="M3480 1350 c0 -5 5 -10 11 -10 5 0 7 5 4 10 -3 6 -8 10 -11 10 -2 0
-4 -4 -4 -10z"/>
<path d="M3575 1340 c-3 -5 -1 -10 4 -10 6 0 11 5 11 10 0 6 -2 10 -4 10 -3 0
-8 -4 -11 -10z"/>
<path d="M3403 1333 c-7 -2 -13 -8 -13 -13 0 -12 33 -5 38 8 4 12 -4 14 -25 5z"/>
<path d="M3445 1321 c-6 -11 13 -26 22 -17 4 3 1 6 -6 6 -7 0 -9 5 -6 10 3 6
4 10 1 10 -3 0 -7 -4 -11 -9z"/>
<path d="M3580 1304 c0 -8 5 -12 10 -9 6 3 10 10 10 16 0 5 -4 9 -10 9 -5 0
-10 -7 -10 -16z"/>
<path d="M3485 1291 c1 -9 -2 -22 -8 -29 -9 -11 -12 -11 -18 5 -7 16 -8 15 -8
-4 -1 -13 3 -23 7 -23 14 0 43 36 35 43 -3 4 -1 7 5 7 7 0 12 4 12 8 0 5 -6 9
-14 9 -7 0 -13 -7 -11 -16z"/>
<path d="M1895 1120 c-10 -11 -15 -20 -11 -20 11 0 39 30 34 36 -3 2 -13 -5
-23 -16z"/>
<path d="M1937 1125 c-8 -20 -4 -29 11 -24 5 2 6 13 2 23 -6 19 -7 19 -13 1z"/>
<path d="M1790 1120 c-8 -5 -10 -10 -5 -10 6 0 17 5 25 10 8 5 11 10 5 10 -5
0 -17 -5 -25 -10z"/>
<path d="M1966 1093 c-6 -14 -5 -15 5 -6 7 7 10 15 7 18 -3 3 -9 -2 -12 -12z"/>
<path d="M1778 1073 c-4 -14 -1 -24 8 -27 8 -3 13 0 11 7 -1 7 4 11 11 9 8 -1
11 2 7 8 -3 6 -10 8 -15 5 -4 -3 -10 0 -12 7 -3 7 -7 3 -10 -9z"/>
<path d="M1755 1069 c-4 -6 -5 -12 -2 -15 2 -3 7 2 10 11 7 17 1 20 -8 4z"/>
<path d="M1962 1041 c-11 -7 -10 -9 3 -14 9 -4 14 -3 10 2 -3 5 1 12 7 14 7 3
9 6 3 6 -5 0 -16 -3 -23 -8z"/>
<path d="M1820 1036 c0 -2 7 -7 16 -10 8 -3 12 -2 9 4 -6 10 -25 14 -25 6z"/>
<path d="M1787 1023 c-10 -9 -9 -23 1 -23 5 0 9 7 9 15 0 17 -1 18 -10 8z"/>
<path d="M1893 1023 c-7 -3 -13 -11 -13 -20 0 -12 2 -12 16 2 18 17 16 25 -3
18z"/>
<path d="M1838 1003 c7 -3 16 -2 19 1 4 3 -2 6 -13 5 -11 0 -14 -3 -6 -6z"/>
<path d="M1931 1002 c-1 -8 -6 -10 -13 -6 -7 4 -5 -1 4 -11 21 -22 29 -18 17
10 -4 11 -8 14 -8 7z"/>
<path d="M1866 971 c-4 -7 -5 -15 -2 -18 9 -9 19 4 14 18 -4 11 -6 11 -12 0z"/>
<path d="M1890 969 c0 -5 5 -7 10 -4 6 3 10 8 10 11 0 2 -4 4 -10 4 -5 0 -10
-5 -10 -11z"/>
<path d="M1778 930 c9 -22 22 -42 28 -44 7 -3 1 15 -13 40 -31 55 -37 57 -15
4z"/>
<path d="M1961 963 c-1 -6 -9 -14 -18 -16 -11 -3 -7 -5 10 -6 32 -1 36 -20 7
-28 -20 -5 -20 -7 -4 -24 9 -11 13 -19 8 -20 -5 0 1 -4 14 -9 12 -5 22 -17 22
-27 0 -15 -2 -16 -10 -3 -8 12 -10 11 -10 -6 0 -11 5 -25 11 -31 14 -14 -25
-38 -43 -27 -7 5 -8 3 -3 -6 4 -7 2 -16 -6 -21 -9 -6 -10 -9 -2 -9 6 0 15 5
18 10 8 13 25 3 25 -13 0 -9 -2 -9 -8 -1 -5 8 -12 6 -25 -6 -16 -16 -16 -18 5
-36 21 -19 21 -19 16 3 -5 17 0 25 23 35 l28 13 -22 13 c-12 7 -14 11 -5 8 10
-3 20 0 24 6 4 7 3 8 -4 4 -8 -5 -10 7 -6 42 4 39 2 51 -10 55 -16 6 -16 43 0
81 6 15 4 18 -9 13 -8 -3 -18 -1 -21 6 -3 9 -5 9 -5 0z"/>
<path d="M1755 921 c-3 -5 -2 -12 3 -15 5 -3 9 1 9 9 0 17 -3 19 -12 6z"/>
<path d="M1837 895 c-4 -8 -2 -17 4 -20 5 -4 7 -10 4 -15 -3 -5 -2 -11 2 -13
5 -3 9 10 10 29 2 35 -10 46 -20 19z"/>
<path d="M1871 897 c0 -7 4 -20 8 -30 7 -18 8 -18 21 -1 8 10 10 15 3 11 -6
-4 -14 -3 -17 2 -4 5 2 11 11 13 15 3 14 5 -4 10 -15 4 -23 2 -22 -5z"/>
<path d="M1770 874 c0 -8 5 -12 10 -9 6 4 8 11 5 16 -9 14 -15 11 -15 -7z"/>
<path d="M1864 831 c-8 -9 8 -20 21 -14 11 3 13 1 9 -10 -4 -12 -1 -14 15 -10
12 3 21 1 21 -5 0 -5 9 -12 20 -15 13 -3 20 0 20 10 0 9 -6 13 -15 9 -9 -3
-15 0 -15 9 0 10 -6 12 -17 8 -16 -6 -16 -5 -5 10 12 15 11 16 -18 14 -17 -1
-33 -4 -36 -6z"/>
<path d="M1956 825 c-3 -8 -1 -15 4 -15 6 0 10 7 10 15 0 8 -2 15 -4 15 -2 0
-6 -7 -10 -15z"/>
<path d="M1801 814 c0 -11 3 -14 6 -6 3 7 2 16 -1 19 -3 4 -6 -2 -5 -13z"/>
<path d="M1836 804 c-4 -10 -4 -15 0 -11 4 4 15 0 24 -8 14 -13 17 -13 17 0 0
8 -4 12 -8 9 -4 -2 -12 3 -17 12 -8 15 -10 14 -16 -2z"/>
<path d="M1770 780 c0 -6 5 -8 10 -5 6 3 10 -1 10 -9 0 -9 -7 -16 -17 -16 -22
0 -8 -13 16 -15 15 -1 19 4 18 24 -2 25 -37 45 -37 21z"/>
<path d="M1903 783 c-7 -3 -13 -12 -13 -21 0 -14 2 -14 9 -3 7 11 9 11 13 0 3
-8 7 -9 11 -3 8 14 -5 32 -20 27z"/>
<path d="M2006 705 c-3 -8 -1 -15 4 -15 6 0 10 7 10 15 0 8 -2 15 -4 15 -2 0
-6 -7 -10 -15z"/>
<path d="M1880 686 c0 -9 -4 -15 -9 -11 -6 3 -15 -5 -21 -17 -10 -21 -10 -22
3 -5 9 11 18 14 21 8 4 -5 2 -12 -4 -16 -5 -3 -10 -12 -10 -18 0 -7 4 -6 10 3
7 11 10 11 10 2 0 -7 4 -11 9 -7 5 3 8 19 6 36 -5 35 -15 52 -15 25z"/>
</g>
</svg>
